<?xml version="1.0" encoding="iso-8859-1"?>
<!-- Generator: Adobe Illustrator 19.0.0, SVG Export Plug-In . SVG Version: 6.00 Build 0)  -->
<svg version="1.1" id="Layer_1" xmlns="http://www.w3.org/2000/svg" xmlns:xlink="http://www.w3.org/1999/xlink" x="0px" y="0px"
	 viewBox="0 0 511.999 511.999" style="enable-background:new 0 0 511.999 511.999;" xml:space="preserve">
<g>
	<g>
		<g>
			<path d="M226.534,148.313v14.592c-0.024,0.257-0.039,0.515-0.039,0.778v27.927c0,4.503,3.649,8.153,8.153,8.153h41.855
				c4.503,0,8.153-3.65,8.153-8.153v-27.927c0-0.255-0.015-0.508-0.038-0.758v-14.614c14.484-9.659,23.298-25.923,23.298-43.545
				c0-28.86-23.48-52.341-52.339-52.341c-28.86,0-52.339,23.479-52.339,52.341C203.236,122.39,212.047,138.654,226.534,148.313z
				 M268.349,183.458H242.8v-11.622h25.549V183.458z M255.574,68.732c19.869,0,36.034,16.164,36.034,36.035
				c0,13.289-7.282,25.459-19.004,31.759c-2.644,1.422-4.293,4.18-4.293,7.181v11.824h-4.437V125.9c0-4.503-3.649-8.153-8.153-8.153
				s-8.153,3.65-8.153,8.153v29.631h-4.729v-11.822c0-3.001-1.649-5.76-4.293-7.181c-11.723-6.302-19.005-18.472-19.005-31.762
				C219.541,84.896,235.706,68.732,255.574,68.732z"/>
			<path d="M246.746,204.085c-4.504,0-8.153,3.65-8.153,8.153s3.649,8.153,8.153,8.153h17.656c4.504,0,8.153-3.65,8.153-8.153
				s-3.649-8.153-8.153-8.153H246.746z"/>
			<path d="M164.401,111.602h22.999c4.504,0,8.153-3.65,8.153-8.153s-3.649-8.153-8.153-8.153h-22.999
				c-4.504,0-8.153,3.65-8.153,8.153S159.898,111.602,164.401,111.602z"/>
			<path d="M315.597,103.449c0,4.503,3.649,8.153,8.153,8.153h22.998c4.504,0,8.153-3.65,8.153-8.153s-3.649-8.153-8.153-8.153
				H323.75C319.247,95.296,315.597,98.945,315.597,103.449z"/>
			<path d="M201.602,145.891l-16.262,16.262c-3.184,3.184-3.184,8.346,0,11.529c1.593,1.591,3.68,2.388,5.766,2.388
				s4.173-0.796,5.766-2.388l16.262-16.262c3.184-3.184,3.184-8.346,0-11.53C209.948,142.707,204.787,142.707,201.602,145.891z"/>
			<path d="M303.781,63.394c2.086,0,4.173-0.796,5.766-2.388l16.263-16.263c3.184-3.184,3.184-8.346,0-11.53
				c-3.185-3.184-8.346-3.184-11.53,0l-16.264,16.264c-3.184,3.184-3.184,8.346,0,11.529
				C299.608,62.597,301.695,63.394,303.781,63.394z"/>
			<path d="M255.575,43.427c4.504,0,8.153-3.65,8.153-8.153v-23c0-4.503-3.649-8.153-8.153-8.153c-4.504,0-8.153,3.65-8.153,8.153
				v23C247.422,39.777,251.072,43.427,255.575,43.427z"/>
			<path d="M298.016,145.891c-3.184,3.184-3.184,8.346,0,11.53l16.263,16.263c1.593,1.591,3.68,2.388,5.766,2.388
				s4.173-0.796,5.766-2.388c3.184-3.184,3.184-8.346,0-11.529l-16.263-16.263C306.362,142.707,301.201,142.707,298.016,145.891z"/>
			<path d="M201.604,61.007c1.593,1.591,3.679,2.388,5.766,2.388c2.086,0,4.173-0.796,5.765-2.387
				c3.185-3.184,3.185-8.346,0.001-11.53l-16.262-16.263c-3.184-3.183-8.346-3.184-11.529,0c-3.185,3.184-3.185,8.346-0.001,11.53
				L201.604,61.007z"/>
			<path d="M310.208,430.479l-29.92-11.999v-3.544c8.094-4.841,14.333-12.467,17.395-21.544
				c11.116-1.074,19.834-10.462,19.834-21.853c0-6.748-3.064-12.791-7.87-16.823v-13.148c0-26.461-20.062-48.316-45.773-51.176
				v-47.519c0-4.503-3.649-8.153-8.153-8.153s-8.153,3.65-8.153,8.153v47.677c-25.114,3.412-44.536,24.983-44.536,51.019v13.074
				c-4.854,4.032-7.951,10.109-7.951,16.896c0,11.475,8.851,20.906,20.083,21.865c3.064,9.071,9.3,16.692,17.388,21.531v3.497
				l-30.726,12.034c-2.998,1.087-27.545,10.95-27.545,42.185v27.068c0,4.503,3.649,8.159,8.153,8.159h19.304
				c4.504,0,8.153-3.649,8.153-8.153s-3.649-8.153-8.153-8.153H190.59v-18.919c0-20.609,16.082-26.601,16.695-26.821
				c0.126-0.042,0.251-0.088,0.376-0.137l28.129-11.017l14.862,14.474c1.523,1.484,3.565,2.312,5.688,2.312
				c0.042,0,0.086,0,0.129-0.001c2.17-0.034,4.235-0.932,5.742-2.495l14.016-14.548l28.052,11.25
				c0.145,0.059,0.219,0.087,0.366,0.137c0.685,0.245,16.767,6.235,16.767,26.845v18.919h-42.061H232.65h-6.763
				c-4.504,0-8.153,3.649-8.153,8.153c0,4.504,3.649,8.153,8.153,8.153h6.763h46.701h50.214c4.503,0,8.153-3.703,8.153-8.206
				v-27.019C337.717,441.54,313.363,431.631,310.208,430.479z M299.777,367.812c0.882,0.998,1.435,2.294,1.435,3.727
				s-0.553,2.729-1.435,3.726V367.812z M213.067,375.555c-1.035-1.026-1.68-2.447-1.68-4.014c0-1.357,0.5-2.587,1.3-3.563
				c0.127-0.023,0.252-0.053,0.379-0.083V375.555z M221.245,345.466c-0.01,0-0.018,0-0.027,0c-0.28,0-0.559,0.014-0.832,0.042
				c-0.086,0.009-0.169,0.026-0.254,0.038c-0.186,0.024-0.372,0.048-0.553,0.085c-0.082,0.016-0.161,0.042-0.241,0.062v-4.124
				c0.001-19.407,15.789-35.197,35.194-35.197h3.613c19.407,0,35.196,15.788,35.196,35.197v4.075
				c-10.084-2.373-13.433-15.982-13.457-16.079c-0.707-3.125-3.18-5.546-6.318-6.186c-3.138-0.644-6.363,0.613-8.24,3.209
				C251.843,345.229,221.68,345.465,221.245,345.466z M263.982,423.626l-7.827,8.125l-7.296-7.106v-4.283
				c1.354,0.14,2.729,0.212,4.119,0.212h6.89c1.389,0,2.761-0.072,4.115-0.211V423.626z M259.867,404.27h-6.89
				c-13.016,0-23.605-10.589-23.605-23.604v-19.423h0.001c9.865-1.124,26.702-4.609,39.938-15.377
				c3.012,4.986,7.549,10.261,14.159,13.47v21.331C283.47,393.681,272.882,404.27,259.867,404.27z"/>
			<path d="M484.491,430.479l-29.92-11.999v-3.544c8.093-4.842,14.331-12.467,17.394-21.544
				c11.115-1.074,19.834-10.462,19.834-21.853c0-6.75-3.064-12.791-7.87-16.823v-13.148c0-26.365-19.917-48.154-45.494-51.14
				V145.662c0-4.503-3.649-8.153-8.153-8.153h-83.787c-4.504,0-8.153,3.65-8.153,8.153c0,4.503,3.649,8.153,8.153,8.153h75.634
				v136.699c-25.248,3.291-44.815,24.924-44.815,51.055v13.074c-4.854,4.032-7.951,10.109-7.951,16.896
				c0,11.475,8.851,20.906,20.082,21.865c3.064,9.071,9.3,16.692,17.39,21.531v3.497l-30.727,12.034
				c-2.998,1.087-27.545,10.95-27.545,42.185v27.066c0,4.503,3.649,8.159,8.153,8.159h19.305c4.504,0,8.153-3.649,8.153-8.153
				s-3.649-8.153-8.153-8.153H364.87v-18.919c0-20.609,16.082-26.601,16.695-26.821c0.126-0.042,0.251-0.088,0.376-0.137
				l28.129-11.017l14.861,14.474c1.524,1.483,3.566,2.312,5.689,2.312c0.042,0,0.086,0,0.129-0.001
				c2.17-0.034,4.235-0.932,5.741-2.495l14.018-14.548l28.052,11.25c0.145,0.059,0.219,0.087,0.366,0.137
				c0.685,0.245,16.768,6.235,16.768,26.845v18.919h-42.061h-46.701h-6.764c-4.504,0-8.153,3.649-8.153,8.153
				c0,4.504,3.649,8.153,8.153,8.153h6.764h46.701h50.214c4.504,0,8.153-3.703,8.153-8.206v-27.019
				C512,441.542,487.649,431.633,484.491,430.479z M474.059,367.812c0.882,0.998,1.435,2.294,1.435,3.727s-0.553,2.729-1.435,3.726
				V367.812z M387.349,375.554c-1.035-1.026-1.678-2.446-1.678-4.013c0-1.357,0.5-2.587,1.3-3.563
				c0.127-0.023,0.252-0.053,0.378-0.083V375.554z M395.528,345.466c-0.01,0-0.018,0-0.027,0c-0.28,0-0.559,0.014-0.832,0.042
				c-0.086,0.009-0.169,0.026-0.254,0.038c-0.185,0.024-0.372,0.048-0.553,0.085c-0.082,0.016-0.161,0.042-0.241,0.062v-4.124
				c0.001-19.407,15.788-35.197,35.195-35.197h3.613c19.407,0,35.194,15.788,35.194,35.197v4.075
				c-10.083-2.373-13.433-15.982-13.456-16.079c-0.707-3.124-3.179-5.544-6.318-6.186c-3.138-0.644-6.361,0.613-8.24,3.209
				C426.126,345.229,395.963,345.465,395.528,345.466z M438.265,423.626l-7.828,8.125l-7.295-7.106v-4.283
				c1.353,0.14,2.727,0.212,4.118,0.212h6.89c1.389,0,2.762-0.072,4.116-0.211V423.626z M434.148,404.269h-6.89
				c-13.016,0-23.605-10.589-23.605-23.604v-19.43h0.001c9.867-1.126,26.712-4.61,39.939-15.371
				c3.011,4.986,7.547,10.261,14.158,13.47v21.331C457.752,393.68,447.164,404.269,434.148,404.269z"/>
			<path d="M165.505,137.51H81.717c-4.504,0-8.153,3.65-8.153,8.153v144.852c-25.248,3.291-44.814,24.924-44.814,51.055v13.074
				c-4.853,4.032-7.95,10.109-7.95,16.896c0,11.475,8.851,20.906,20.082,21.865c3.064,9.071,9.3,16.692,17.39,21.531v3.497
				l-30.727,12.034C24.547,431.554,0,441.417,0,472.651v27.067c0,4.503,3.649,8.159,8.153,8.159h19.305
				c4.504,0,8.153-3.649,8.153-8.153s-3.649-8.153-8.153-8.153H16.306v-18.919c0-20.609,16.082-26.601,16.695-26.821
				c0.126-0.042,0.251-0.088,0.376-0.137l28.129-11.017l14.861,14.474c1.524,1.483,3.566,2.312,5.689,2.312
				c0.042,0,0.086,0,0.129-0.001c2.17-0.034,4.235-0.932,5.741-2.495l14.018-14.548l28.051,11.25
				c0.145,0.059,0.219,0.087,0.366,0.137c0.685,0.245,16.768,6.235,16.768,26.845v18.919h-42.061H58.366h-6.764
				c-4.504,0-8.153,3.649-8.153,8.153c0,4.504,3.649,8.153,8.153,8.153h6.764h46.701h50.214c4.504,0,8.153-3.703,8.153-8.206
				v-27.019c0-31.109-24.351-41.019-27.509-42.172l-29.92-11.999v-3.544c8.093-4.842,14.332-12.467,17.394-21.544
				c11.115-1.074,19.834-10.462,19.834-21.853c0-6.75-3.064-12.791-7.87-16.823v-13.148c0-26.365-19.918-48.154-45.494-51.14
				V153.815h75.635c4.503,0,8.153-3.65,8.153-8.153C173.658,141.159,170.008,137.51,165.505,137.51z M38.784,375.554
				c-1.035-1.026-1.678-2.446-1.678-4.013c0-1.357,0.5-2.587,1.3-3.563c0.127-0.023,0.252-0.053,0.378-0.083V375.554z
				 M125.493,367.812c0.883,0.998,1.435,2.294,1.435,3.727c0.001,1.434-0.552,2.729-1.435,3.726V367.812z M89.699,423.626
				l-7.828,8.125l-7.295-7.106v-4.283c1.354,0.14,2.727,0.212,4.118,0.212h6.89c1.389,0,2.762-0.072,4.116-0.211V423.626z
				 M109.186,380.665c0.001,13.015-10.587,23.604-23.602,23.604h-6.89c-13.016,0-23.605-10.589-23.605-23.604v-19.43
				c9.867-1.126,26.712-4.61,39.939-15.371c3.012,4.986,7.547,10.261,14.158,13.47V380.665z M119.057,341.569v4.075
				c-10.083-2.373-13.432-15.982-13.456-16.079c-0.707-3.124-3.179-5.544-6.318-6.186c-3.139-0.644-6.363,0.613-8.24,3.209
				c-13.483,18.641-43.646,18.877-44.081,18.878c-0.01,0-0.018,0-0.027,0c-0.28,0-0.559,0.014-0.832,0.042
				c-0.086,0.009-0.169,0.026-0.254,0.038c-0.186,0.024-0.372,0.048-0.553,0.085c-0.082,0.016-0.16,0.042-0.241,0.062v-4.124
				c0-19.407,15.787-35.197,35.194-35.197h3.613C103.27,306.372,119.057,322.162,119.057,341.569z"/>
		</g>
	</g>
</g>
<g>
</g>
<g>
</g>
<g>
</g>
<g>
</g>
<g>
</g>
<g>
</g>
<g>
</g>
<g>
</g>
<g>
</g>
<g>
</g>
<g>
</g>
<g>
</g>
<g>
</g>
<g>
</g>
<g>
</g>
</svg>
