<?xml version="1.0" encoding="iso-8859-1"?>
<!-- Generator: Adobe Illustrator 19.0.0, SVG Export Plug-In . SVG Version: 6.00 Build 0)  -->
<svg version="1.1" id="Layer_1" xmlns="http://www.w3.org/2000/svg" xmlns:xlink="http://www.w3.org/1999/xlink" x="0px" y="0px"
	 viewBox="0 0 512.001 512.001" style="enable-background:new 0 0 512.001 512.001;" xml:space="preserve">
<g>
	<g>
		<g>
			<path d="M503.871,143.22h-29.214c-3.318-12.124-8.139-23.748-14.387-34.695l20.668-20.67c3.175-3.175,3.175-8.321,0-11.496
				l-44.956-44.956c-3.176-3.174-8.322-3.174-11.498,0l-20.668,20.67c-10.948-6.251-22.572-11.071-34.695-14.387V8.473
				c0-4.491-3.639-8.129-8.129-8.129h-63.577c-4.491,0-8.129,3.639-8.129,8.129v29.214c-12.123,3.318-23.746,8.138-34.694,14.387
				l-20.67-20.67c-1.524-1.524-3.592-2.38-5.748-2.38s-4.224,0.856-5.748,2.381L177.47,76.361c-1.525,1.525-2.381,3.592-2.381,5.749
				c0,2.156,0.857,4.224,2.381,5.749l20.668,20.666c-6.249,10.948-11.069,22.572-14.386,34.695h-29.213
				c-4.489,0-8.129,3.639-8.129,8.129v63.577c0,4.491,3.64,8.129,8.129,8.129h29.214c3.318,12.125,8.139,23.749,14.387,34.697
				l-20.67,20.666c-1.524,1.524-2.381,3.592-2.381,5.749c0,2.156,0.856,4.223,2.381,5.749l44.957,44.956
				c3.175,3.174,8.321,3.174,11.496,0l20.67-20.667c10.946,6.249,22.57,11.069,34.694,14.386v29.213
				c0,4.489,3.639,8.129,8.129,8.129h63.577c4.49,0,8.129-3.64,8.129-8.129v-29.213c12.124-3.318,23.749-8.139,34.695-14.386
				l20.67,20.667c3.174,3.174,8.321,3.174,11.497,0l44.956-44.956c3.175-3.176,3.175-8.322,0-11.496l-20.667-20.668
				c6.247-10.945,11.069-22.571,14.386-34.696h29.214c4.49,0,8.129-3.639,8.129-8.129v-63.577
				C512,146.86,508.36,143.22,503.871,143.22z M495.742,206.797h-27.427c-3.795,0-7.084,2.625-7.926,6.326
				c-3.354,14.737-9.151,28.719-17.232,41.56c-2.021,3.213-1.552,7.394,1.132,10.078l19.406,19.407l-33.459,33.459l-19.407-19.405
				c-2.683-2.683-6.865-3.153-10.077-1.132c-12.843,8.08-26.826,13.878-41.562,17.233c-3.699,0.841-6.324,4.131-6.324,7.926v27.425
				h-47.319V322.25c0-3.795-2.625-7.084-6.324-7.926c-14.736-3.356-28.718-9.152-41.561-17.233
				c-3.212-2.021-7.395-1.552-10.077,1.132l-19.407,19.405l-33.46-33.459l19.407-19.404c2.684-2.684,3.153-6.866,1.132-10.078
				c-8.082-12.845-13.88-26.828-17.233-41.563c-0.842-3.7-4.132-6.326-7.926-6.326h-27.426v-47.319h27.426
				c3.795,0,7.084-2.625,7.926-6.326c3.352-14.732,9.15-28.715,17.233-41.561c2.02-3.211,1.551-7.394-1.133-10.078L194.715,82.11
				l33.46-33.461l19.407,19.407c2.684,2.683,6.867,3.151,10.077,1.132c12.845-8.082,26.827-13.881,41.56-17.232
				c3.7-0.842,6.326-4.133,6.326-7.926V16.602h47.319v27.428c0,3.795,2.625,7.084,6.326,7.926
				c14.733,3.351,28.716,9.149,41.561,17.232c3.21,2.019,7.392,1.552,10.078-1.132l19.406-19.407l33.459,33.459l-19.406,19.407
				c-2.684,2.683-3.152,6.865-1.132,10.077c8.081,12.844,13.88,26.827,17.232,41.561c0.842,3.7,4.133,6.326,7.926,6.326h27.427
				V206.797z"/>
			<path d="M412.676,134.563c-4.055,1.926-5.781,6.775-3.855,10.83c5.621,11.836,8.472,24.537,8.472,37.747
				c0,24.342-9.927,46.406-25.944,62.365c-4.599-3.478-8.635-5.09-9.826-5.522l-28.579-11.461v-3.591
				c8.786-4.734,15.91-12.529,20.147-22.084c0.231,0.02,0.463,0.035,0.698,0.035c11.426,0,20.722-9.719,20.722-21.665
				c0-8.568-4.797-15.969-11.722-19.479v-5.567c0-30.737-23.182-55.744-51.675-55.744h-3.627c-28.493,0-51.675,25.006-51.675,55.744
				v5.591c-6.896,3.52-11.669,10.907-11.669,19.455c0,11.945,9.293,21.665,20.716,21.665c0.266,0,0.528-0.015,0.788-0.04
				c4.344,9.797,11.716,17.751,20.807,22.447v3.184L277.1,239.972c-1.147,0.412-5.27,2.045-9.959,5.611
				c-16.062-15.964-26.024-38.06-26.024-62.441c0-48.574,39.516-88.091,88.089-88.091c24.686,0,48.401,10.462,65.06,28.702
				c3.027,3.316,8.169,3.549,11.485,0.52c3.316-3.028,3.548-8.169,0.52-11.485c-19.732-21.605-47.822-33.997-77.066-33.997
				c-57.538,0-104.347,46.81-104.347,104.349c0,57.535,46.809,104.343,104.347,104.343c57.537,0,104.346-46.807,104.346-104.343
				c0-15.644-3.38-30.691-10.045-44.723C421.58,134.361,416.729,132.636,412.676,134.563z M377.368,182.475v-4.451
				c0.548,0.897,0.884,1.995,0.884,3.194c-0.001,1.233-0.357,2.359-0.932,3.268C377.347,183.818,377.368,183.15,377.368,182.475z
				 M280.402,181.219c0-1.26,0.373-2.404,0.971-3.323v4.582c0,0.719,0.022,1.432,0.051,2.144
				C280.795,183.688,280.402,182.514,280.402,181.219z M293.255,157.237c-0.001,0-0.001,0-0.001,0c-0.008,0-0.016,0-0.025,0
				c-0.393,0-0.779,0.038-1.158,0.092v-1.155c0-21.773,15.888-39.486,35.417-39.486h3.627c19.529,0,35.417,17.714,35.417,39.486
				v1.025c-9.738-3.295-13.243-18.34-13.27-18.465c-0.666-3.215-3.2-5.714-6.424-6.334c-3.232-0.62-6.504,0.761-8.316,3.499
				C324.563,157,293.577,157.237,293.255,157.237z M297.631,182.476v-9.183h0.001c8.942-0.693,29.425-3.773,44.974-17.543
				c3.616,6.563,9.45,13.643,18.504,16.766v9.959c0,17.204-12.487,31.201-27.837,31.201h-7.804
				C310.119,213.677,297.631,199.681,297.631,182.476z M336.685,229.78v3.772l-7.249,7.523l-6.723-6.55v-4.692h0.001
				c0.913,0.061,1.83,0.102,2.755,0.102h7.804C334.423,229.935,335.558,229.872,336.685,229.78z M329.204,271.227
				c-18.08-0.001-34.903-5.484-48.905-14.865c1.342-0.736,2.229-1.065,2.227-1.065c0,0,0,0,0,0.001
				c0.125-0.042,0.249-0.088,0.374-0.137l26.887-10.53l14.161,13.795c1.52,1.478,3.555,2.305,5.672,2.305
				c0.042,0,0.086,0,0.129-0.001c2.163-0.034,4.224-0.93,5.725-2.488l13.348-13.854l26.801,10.749
				c0.144,0.059,0.29,0.111,0.437,0.16c0.018,0.006,0.857,0.312,2.137,1.008C364.18,265.723,347.324,271.227,329.204,271.227z"/>
			<path d="M219.326,370.584h-15.244c-1.799-5.955-4.184-11.707-7.133-17.2l10.784-10.782c3.175-3.176,3.175-8.322,0-11.497
				l-27.178-27.179c-1.524-1.525-3.592-2.381-5.748-2.381s-4.224,0.856-5.748,2.38l-10.785,10.785
				c-5.494-2.95-11.246-5.335-17.2-7.133v-15.243c0-4.491-3.64-8.129-8.129-8.129H94.509c-4.489,0-8.129,3.639-8.129,8.129v15.243
				c-5.954,1.798-11.705,4.183-17.2,7.133l-10.784-10.784c-1.525-1.525-3.592-2.381-5.749-2.381c-2.156,0-4.224,0.856-5.748,2.38
				L19.72,331.104c-3.175,3.176-3.175,8.322,0,11.497l10.784,10.784c-2.949,5.493-5.334,11.244-7.133,17.199H8.129
				c-4.489,0-8.129,3.639-8.129,8.129v38.438c0,4.489,3.64,8.129,8.129,8.129h15.243c1.799,5.955,4.184,11.707,7.133,17.201
				l-10.784,10.782c-1.525,1.525-2.381,3.592-2.381,5.749c0,2.156,0.856,4.224,2.381,5.749L46.9,491.939
				c3.175,3.174,8.322,3.174,11.496,0l10.784-10.784c5.493,2.948,11.245,5.334,17.2,7.133v15.24c0,4.491,3.64,8.129,8.129,8.129
				h38.436c4.489,0,8.129-3.639,8.129-8.129v-15.24c5.955-1.799,11.706-4.185,17.2-7.133l10.785,10.784
				c3.175,3.174,8.322,3.174,11.496,0l27.178-27.178c3.175-3.176,3.175-8.322,0-11.496l-10.784-10.786
				c2.948-5.491,5.333-11.244,7.132-17.199h15.244c4.489,0,8.129-3.64,8.129-8.129v-38.438
				C227.455,374.223,223.815,370.584,219.326,370.584z M211.197,409.022h-13.367c-3.795,0-7.084,2.625-7.926,6.326
				c-1.947,8.555-5.313,16.672-10.004,24.126c-2.021,3.212-1.552,7.394,1.132,10.078l9.46,9.461l-15.683,15.683l-9.46-9.46
				c-2.684-2.683-6.865-3.153-10.077-1.132c-7.458,4.692-15.576,8.059-24.129,10.005c-3.699,0.841-6.324,4.132-6.324,7.926V495.4
				h-22.179v-13.365c0-3.795-2.625-7.084-6.324-7.926c-8.553-1.948-16.671-5.314-24.129-10.005
				c-3.213-2.021-7.394-1.552-10.077,1.132l-9.459,9.46l-15.684-15.683l9.459-9.459c2.684-2.684,3.153-6.866,1.133-10.078
				c-4.693-7.458-8.06-15.576-10.004-24.129c-0.841-3.699-4.132-6.326-7.926-6.326H16.258v-22.179h13.367
				c3.795,0,7.085-2.626,7.926-6.326c1.946-8.552,5.311-16.669,10.004-24.128c2.02-3.212,1.551-7.394-1.133-10.078l-9.459-9.459
				l15.684-15.684l9.459,9.46c2.684,2.685,6.865,3.153,10.078,1.133c7.46-4.694,15.578-8.06,24.126-10.003
				c3.701-0.841,6.327-4.132,6.327-7.927v-13.366h22.178v13.369c0,3.796,2.626,7.085,6.327,7.927
				c8.549,1.943,16.666,5.309,24.126,10.003c3.212,2.02,7.395,1.551,10.078-1.132l9.46-9.46l15.683,15.684l-9.459,9.459
				c-2.684,2.684-3.153,6.866-1.133,10.078c4.692,7.457,8.059,15.575,10.005,24.128c0.842,3.7,4.132,6.326,7.926,6.326h13.367
				V409.022z"/>
			<path d="M113.728,342.78c-30.411,0-55.153,24.742-55.153,55.153c0,7.442,1.459,14.665,4.337,21.471
				c1.749,4.134,6.52,6.069,10.653,4.319c4.135-1.748,6.07-6.518,4.32-10.653c-2.026-4.79-3.053-9.882-3.053-15.136
				c0-21.447,17.448-38.895,38.895-38.895c21.447,0,38.894,17.448,38.894,38.895c0,21.446-17.447,38.893-38.894,38.893
				c-7.796,0-15.314-2.295-21.741-6.637c-3.721-2.511-8.773-1.534-11.286,2.186c-2.513,3.721-1.535,8.774,2.186,11.286
				c9.124,6.165,19.789,9.422,30.843,9.422c30.411,0,55.152-24.741,55.152-55.151C168.88,367.522,144.138,342.78,113.728,342.78z"/>
		</g>
	</g>
</g>
<g>
</g>
<g>
</g>
<g>
</g>
<g>
</g>
<g>
</g>
<g>
</g>
<g>
</g>
<g>
</g>
<g>
</g>
<g>
</g>
<g>
</g>
<g>
</g>
<g>
</g>
<g>
</g>
<g>
</g>
</svg>
